<svg width="38" height="37" viewBox="0 0 38 37" fill="none" xmlns="http://www.w3.org/2000/svg">
<path d="M36.9624 2.58566L35.1545 0.816022C34.623 0.296621 33.9027 0.00489722 33.1517 0.00489722C32.4008 0.00489722 31.6805 0.296621 31.149 0.816022L29.7317 2.20352C29.6837 2.25045 29.6456 2.30619 29.6196 2.36755C29.5936 2.4289 29.5802 2.49467 29.5802 2.56109C29.5802 2.62751 29.5936 2.69328 29.6196 2.75464C29.6456 2.816 29.6837 2.87173 29.7317 2.91866L31.0722 4.2313L29.0847 6.17698C26.2047 3.88739 22.6077 2.63766 18.8977 2.63766C15.1876 2.63766 11.5906 3.88739 8.71059 6.17698L6.72278 4.23101L8.06334 2.91837C8.11136 2.87144 8.14945 2.81571 8.17544 2.75435C8.20143 2.693 8.2148 2.62723 8.2148 2.5608C8.2148 2.49438 8.20143 2.42861 8.17544 2.36726C8.14945 2.3059 8.11136 2.25016 8.06334 2.20323L6.64601 0.815733C6.11454 0.296331 5.39426 0.00460815 4.64329 0.00460815C3.89232 0.00460815 3.17204 0.296331 2.64057 0.815733L0.832883 2.58566C0.302314 3.10594 0.00431824 3.81106 0.00431824 4.54623C0.00431824 5.28139 0.302314 5.98652 0.832883 6.5068L2.25021 7.8943C2.29815 7.9413 2.35509 7.97859 2.41776 8.00403C2.48044 8.02948 2.54762 8.04257 2.61547 8.04257C2.68332 8.04257 2.75051 8.02948 2.81318 8.00403C2.87586 7.97859 2.93279 7.9413 2.98073 7.8943L4.32159 6.58195L6.30939 8.52734C3.82283 11.5251 2.54215 15.3097 2.70869 19.1679C2.87523 23.0261 4.47749 26.6914 7.21353 29.4731L4.66765 35.0682C4.57251 35.2773 4.53226 35.5063 4.55057 35.7345C4.56887 35.9626 4.64515 36.1827 4.77246 36.3746C4.89977 36.5666 5.07408 36.7244 5.27953 36.8336C5.48498 36.9428 5.71507 37 5.94886 37H7.24188C7.51294 36.9998 7.77815 36.9228 8.0055 36.7783C8.23285 36.6339 8.41261 36.428 8.52309 36.1857L10.4232 32.0128C12.9717 33.5491 15.9059 34.3626 18.8988 34.3626C21.8918 34.3626 24.826 33.5491 27.3745 32.0128L29.2734 36.186C29.3839 36.4281 29.5634 36.6337 29.7906 36.7782C30.0177 36.9226 30.2826 36.9996 30.5534 37H31.8465C32.0802 37 32.3103 36.9428 32.5158 36.8336C32.7212 36.7244 32.8956 36.5666 33.0229 36.3746C33.1502 36.1827 33.2264 35.9626 33.2448 35.7345C33.2631 35.5063 33.2228 35.2773 33.1277 35.0682L30.5818 29.4731C33.3178 26.6914 34.9201 23.0261 35.0866 19.1679C35.2532 15.3097 33.9725 11.5251 31.4859 8.52734L33.4737 6.58137L34.8146 7.89372C34.8625 7.94072 34.9195 7.97801 34.9821 8.00346C35.0448 8.0289 35.112 8.04199 35.1798 8.04199C35.2477 8.04199 35.3149 8.0289 35.3776 8.00346C35.4402 7.97801 35.4972 7.94072 35.5451 7.89372L36.9624 6.50622C37.4928 5.98596 37.7907 5.28096 37.7907 4.54594C37.7907 3.81092 37.4928 3.10592 36.9624 2.58566ZM2.61547 6.82187L1.56488 5.79166C1.22805 5.4611 1.0389 5.01327 1.0389 4.54637C1.0389 4.07948 1.22805 3.63165 1.56488 3.30109L3.37168 1.53203C3.70933 1.20238 4.16673 1.01727 4.64359 1.01727C5.12045 1.01727 5.57785 1.20238 5.91549 1.53203L6.96845 2.5608L2.61547 6.82187ZM5.0524 5.86797L5.99197 4.94817L7.92663 6.84182C7.60064 7.1357 7.28735 7.44239 6.98676 7.76191L5.0524 5.86797ZM7.57879 35.7744C7.54976 35.8381 7.5025 35.8923 7.44271 35.9303C7.38292 35.9683 7.31317 35.9885 7.24188 35.9886H5.94886C5.88732 35.9886 5.82675 35.9735 5.77267 35.9448C5.71858 35.9161 5.6727 35.8745 5.63919 35.824C5.60568 35.7735 5.5856 35.7155 5.58079 35.6555C5.57599 35.5954 5.58659 35.5351 5.61165 35.4801L8.00192 30.2299C8.49244 30.6649 9.00954 31.0704 9.55036 31.4439L7.57879 35.7744ZM32.1562 35.8241C32.123 35.8749 32.0771 35.9166 32.023 35.9454C31.9688 35.9741 31.9081 35.989 31.8465 35.9886H30.5534C30.4822 35.9885 30.4124 35.9683 30.3526 35.9303C30.2928 35.8923 30.2456 35.8381 30.2165 35.7744L28.2461 31.4442C28.787 31.0706 29.3041 30.6652 29.7946 30.2302L32.1851 35.4801C32.2103 35.5352 32.2208 35.5957 32.2157 35.6558C32.2105 35.716 32.1898 35.7739 32.1556 35.8241H32.1562ZM18.8977 33.3509C15.8973 33.3509 12.9642 32.48 10.4695 30.8482C7.97472 29.2164 6.03028 26.897 4.88204 24.1834C3.7338 21.4697 3.43334 18.4837 4.01865 15.6029C4.60396 12.7221 6.04875 10.0759 8.17033 7.99895C10.2919 5.92199 12.995 4.50755 15.9377 3.9345C18.8804 3.36145 21.9307 3.65553 24.7027 4.77955C27.4747 5.90357 29.8439 7.80704 31.5109 10.2493C33.1778 12.6915 34.0675 15.5628 34.0675 18.5C34.0632 22.4373 32.4635 26.2122 29.6196 28.9963C26.7756 31.7805 22.9196 33.3465 18.8977 33.3509ZM30.8086 7.76017C30.5084 7.44105 30.1951 7.13435 29.8687 6.84009L31.8034 4.94644L32.7429 5.86623L30.8086 7.76017ZM36.2316 5.79166L35.1798 6.82187L30.8269 2.5608L31.8798 1.53203C32.2175 1.20238 32.6749 1.01727 33.1517 1.01727C33.6286 1.01727 34.086 1.20238 34.4236 1.53203L36.2304 3.30109C36.5673 3.63165 36.7564 4.07948 36.7564 4.54637C36.7564 5.01327 36.5673 5.4611 36.2304 5.79166H36.2316Z" fill="#95E1D3"/>
</svg>
